<svg xmlns="http://www.w3.org/2000/svg" width="22.872" height="22.872" viewBox="0 0 22.872 22.872">
  <path id="icon_home_active" d="M12.182.8A.876.876,0,0,0,11.7.97L1.184,8.887a.879.879,0,1,0,1.056,1.4l9.987-7.52,9.994,7.52a.879.879,0,1,0,1.056-1.4L12.758.97A.876.876,0,0,0,12.182.8Zm0,3.916a.876.876,0,0,0-.48.175L2.938,11.5a.881.881,0,0,0-.35.7V22.783a.879.879,0,0,0,.876.883H9.6a.879.879,0,0,0,.881-.883l-.02-6.156h3.523v6.156a.879.879,0,0,0,.876.883H21a.879.879,0,0,0,.874-.883V12.2a.881.881,0,0,0-.35-.7L12.758,4.886a.876.876,0,0,0-.576-.175Zm.045,1.981,7.89,5.948v9.267H15.738V15.744a.879.879,0,0,0-.881-.876H9.584a.879.879,0,0,0-.881.883l.02,6.156H4.345V12.639Z" transform="translate(-0.794 -0.794)" fill="#fff"/>
</svg>
